# xmcd
#
# Track frame offsets:
# 150
# 13480
# 28672
# 42437
# 56415
# 66981
# 85077
# 99584
# 112165
# 124185
# 134720
# 154295
# 166250
#
# Disc length: 2386 seconds
#
#
# Revision: 0
# Processed by: cddbd v1.4PL0 Copyright (c) Steve Scherf et al.
# Submitted via: FreeRIP 2.21 
#
DISCID=bc09500d
DTITLE=Fragment - Fragment 2000
DYEAR=2000
DGENRE=Bluegrass
TTITLE0=Put Your Trust in Me
TTITLE1=Runaway Kind
TTITLE2=Fields of Gold
TTITLE3=Balls in the Corner
TTITLE4=Fiddlin' Man
TTITLE5=Summerfly
TTITLE6=Home Again
TTITLE7=San Antonio Rose
TTITLE8=Forget me
TTITLE9=Svata's Breakdown
TTITLE10=Sunday Afternoon
TTITLE11=You're in my Heart
TTITLE12=Sleepwalkin'
EXTD=
EXTT0=
EXTT1=
EXTT2=
EXTT3=
EXTT4=
EXTT5=
EXTT6=
EXTT7=
EXTT8=
EXTT9=
EXTT10=
EXTT11=
EXTT12=
PLAYORDER=
